<?xml version="1.0" encoding="UTF-8" standalone="no"?>
<!DOCTYPE svg PUBLIC "-//W3C//DTD SVG 1.1//EN"
 "http://www.w3.org/Graphics/SVG/1.1/DTD/svg11.dtd">
<!-- Generated by graphviz version 12.2.1 (0)
 -->
<!-- Pages: 1 -->
<svg width="424pt" height="236pt"
 viewBox="0.00 0.00 423.63 236.28" xmlns="http://www.w3.org/2000/svg" xmlns:xlink="http://www.w3.org/1999/xlink">
<g id="graph0" class="graph" transform="scale(1 1) rotate(0) translate(4 232.28)">
<polygon fill="white" stroke="none" points="-4,4 -4,-232.28 419.63,-232.28 419.63,4 -4,4"/>
<!-- 0 -->
<g id="node1" class="node">
<title>0</title>
<ellipse fill="none" stroke="black" cx="105.94" cy="-36.33" rx="27" ry="27"/>
<text text-anchor="middle" x="105.94" y="-31.66" font-family="Times,serif" font-size="14.00">A</text>
</g>
<!-- 1 -->
<g id="node2" class="node">
<title>1</title>
<ellipse fill="none" stroke="black" cx="293.72" cy="-27" rx="27" ry="27"/>
<text text-anchor="middle" x="293.72" y="-22.32" font-family="Times,serif" font-size="14.00">B</text>
</g>
<!-- 0&#45;&#45;1 -->
<g id="edge1" class="edge">
<title>0&#45;&#45;1</title>
<path fill="none" stroke="black" d="M133.25,-34.97C168.85,-33.21 230.76,-30.13 266.38,-28.36"/>
</g>
<!-- 2 -->
<g id="node3" class="node">
<title>2</title>
<ellipse fill="none" stroke="black" cx="207.32" cy="-182.36" rx="27" ry="27"/>
<text text-anchor="middle" x="207.32" y="-177.69" font-family="Times,serif" font-size="14.00">C</text>
</g>
<!-- 0&#45;&#45;2 -->
<g id="edge2" class="edge">
<title>0&#45;&#45;2</title>
<path fill="none" stroke="black" d="M121.56,-58.83C140.67,-86.35 172.81,-132.66 191.85,-160.08"/>
</g>
<!-- 3 -->
<g id="node4" class="node">
<title>3</title>
<ellipse fill="none" stroke="black" cx="27" cy="-201.28" rx="27" ry="27"/>
<text text-anchor="middle" x="27" y="-196.61" font-family="Times,serif" font-size="14.00">D</text>
</g>
<!-- 0&#45;&#45;3 -->
<g id="edge3" class="edge">
<title>0&#45;&#45;3</title>
<path fill="none" stroke="black" d="M94.12,-61.03C79.2,-92.21 53.67,-145.55 38.77,-176.69"/>
</g>
<!-- 1&#45;&#45;2 -->
<g id="edge4" class="edge">
<title>1&#45;&#45;2</title>
<path fill="none" stroke="black" d="M268.1,-36.09C241.04,-60.07 207.83,-119.7 201.58,-155.48"/>
</g>
<!-- 1&#45;&#45;2 -->
<g id="edge5" class="edge">
<title>1&#45;&#45;2</title>
<path fill="none" stroke="black" d="M299.52,-53.56C293.43,-89.2 260.29,-148.87 233.19,-173.06"/>
</g>
<!-- 1&#45;&#45;2 -->
<g id="edge6" class="edge">
<title>1&#45;&#45;2</title>
<path fill="none" stroke="black" d="M280.41,-50.94C264.17,-80.13 236.89,-129.19 220.65,-158.4"/>
</g>
<!-- 4 -->
<g id="node5" class="node">
<title>4</title>
<ellipse fill="none" stroke="black" cx="388.63" cy="-183.31" rx="27" ry="27"/>
<text text-anchor="middle" x="388.63" y="-178.64" font-family="Times,serif" font-size="14.00">E</text>
</g>
<!-- 1&#45;&#45;4 -->
<g id="edge7" class="edge">
<title>1&#45;&#45;4</title>
<path fill="none" stroke="black" d="M307.93,-50.4C325.87,-79.95 356.56,-130.5 374.48,-160.01"/>
</g>
<!-- 2&#45;&#45;3 -->
<g id="edge8" class="edge">
<title>2&#45;&#45;3</title>
<path fill="none" stroke="black" d="M180.85,-175.34C145.96,-173.96 85.08,-180.36 51.31,-188.95"/>
</g>
<!-- 2&#45;&#45;3 -->
<g id="edge9" class="edge">
<title>2&#45;&#45;3</title>
<path fill="none" stroke="black" d="M182.89,-194.73C149.04,-203.32 88.16,-209.7 53.34,-208.3"/>
</g>
<!-- 2&#45;&#45;4 -->
<g id="edge10" class="edge">
<title>2&#45;&#45;4</title>
<path fill="none" stroke="black" d="M234.46,-182.51C268.64,-182.69 327.03,-182.99 361.3,-183.17"/>
</g>
</g>
</svg>
