<?xml version="1.0" encoding="UTF-8" standalone="no"?>
<!DOCTYPE svg PUBLIC "-//W3C//DTD SVG 1.1//EN"
 "http://www.w3.org/Graphics/SVG/1.1/DTD/svg11.dtd">
<!-- Generated by graphviz version 12.2.1 (0)
 -->
<!-- Pages: 1 -->
<svg width="328pt" height="316pt"
 viewBox="0.00 0.00 327.63 316.07" xmlns="http://www.w3.org/2000/svg" xmlns:xlink="http://www.w3.org/1999/xlink">
<g id="graph0" class="graph" transform="scale(1 1) rotate(0) translate(4 312.07)">
<polygon fill="white" stroke="none" points="-4,4 -4,-312.07 323.63,-312.07 323.63,4 -4,4"/>
<!-- 0 -->
<g id="node1" class="node">
<title>0</title>
<ellipse fill="none" stroke="black" cx="27" cy="-114.38" rx="27" ry="27"/>
<text text-anchor="middle" x="27" y="-109.71" font-family="Times,serif" font-size="14.00">3</text>
</g>
<!-- 1 -->
<g id="node2" class="node">
<title>1</title>
<ellipse fill="none" stroke="black" cx="292.63" cy="-113.21" rx="27" ry="27"/>
<text text-anchor="middle" x="292.63" y="-108.54" font-family="Times,serif" font-size="14.00">4</text>
</g>
<!-- 0&#45;&#45;1 -->
<g id="edge1" class="edge">
<title>0&#45;&#45;1</title>
<path fill="none" stroke="black" d="M54.43,-114.26C105.46,-114.04 214.43,-113.56 265.35,-113.33"/>
</g>
<!-- 2 -->
<g id="node3" class="node">
<title>2</title>
<ellipse fill="none" stroke="black" cx="144.09" cy="-27" rx="27" ry="27"/>
<text text-anchor="middle" x="144.09" y="-22.32" font-family="Times,serif" font-size="14.00">6</text>
</g>
<!-- 0&#45;&#45;2 -->
<g id="edge2" class="edge">
<title>0&#45;&#45;2</title>
<path fill="none" stroke="black" d="M49.02,-97.95C69.96,-82.32 101.26,-58.96 122.16,-43.36"/>
</g>
<!-- 3 -->
<g id="node4" class="node">
<title>3</title>
<ellipse fill="none" stroke="black" cx="61.85" cy="-281.07" rx="27" ry="27"/>
<text text-anchor="middle" x="61.85" y="-276.39" font-family="Times,serif" font-size="14.00">3</text>
</g>
<!-- 0&#45;&#45;3 -->
<g id="edge3" class="edge">
<title>0&#45;&#45;3</title>
<path fill="none" stroke="black" d="M32.6,-141.16C39.1,-172.27 49.77,-223.27 56.27,-254.35"/>
</g>
<!-- 1&#45;&#45;2 -->
<g id="edge4" class="edge">
<title>1&#45;&#45;2</title>
<path fill="none" stroke="black" d="M284.15,-87.23C261.44,-60.51 205.28,-27.92 170.83,-21.47"/>
</g>
<!-- 1&#45;&#45;2 -->
<g id="edge5" class="edge">
<title>1&#45;&#45;2</title>
<path fill="none" stroke="black" d="M265.86,-118.74C231.39,-112.28 175.24,-79.68 152.55,-52.96"/>
</g>
<!-- 1&#45;&#45;2 -->
<g id="edge6" class="edge">
<title>1&#45;&#45;2</title>
<path fill="none" stroke="black" d="M269.09,-99.55C241.28,-83.41 195.28,-56.71 167.51,-40.6"/>
</g>
<!-- 2&#45;&#45;3 -->
<g id="edge7" class="edge">
<title>2&#45;&#45;3</title>
<path fill="none" stroke="black" d="M128.04,-49.23C105.82,-95.84 71.03,-203.36 61.82,-253.93"/>
</g>
<!-- 2&#45;&#45;3 -->
<g id="edge8" class="edge">
<title>2&#45;&#45;3</title>
<path fill="none" stroke="black" d="M144.06,-54.42C134.75,-105.2 99.94,-212.72 77.77,-259.1"/>
</g>
</g>
</svg>
