<?xml version="1.0" encoding="UTF-8" standalone="no"?>
<!DOCTYPE svg PUBLIC "-//W3C//DTD SVG 1.1//EN"
 "http://www.w3.org/Graphics/SVG/1.1/DTD/svg11.dtd">
<!-- Generated by graphviz version 12.2.1 (0)
 -->
<!-- Pages: 1 -->
<svg width="431pt" height="297pt"
 viewBox="0.00 0.00 430.73 297.06" xmlns="http://www.w3.org/2000/svg" xmlns:xlink="http://www.w3.org/1999/xlink">
<g id="graph0" class="graph" transform="scale(1 1) rotate(0) translate(4 293.06)">
<polygon fill="white" stroke="none" points="-4,4 -4,-293.06 426.73,-293.06 426.73,4 -4,4"/>
<!-- 0 -->
<g id="node1" class="node">
<title>0</title>
<ellipse fill="none" stroke="black" cx="213.94" cy="-205.03" rx="27" ry="27"/>
<text text-anchor="middle" x="213.94" y="-200.36" font-family="Times,serif" font-size="14.00">A</text>
</g>
<!-- 1 -->
<g id="node2" class="node">
<title>1</title>
<ellipse fill="none" stroke="black" cx="348.8" cy="-75.71" rx="27" ry="27"/>
<text text-anchor="middle" x="348.8" y="-71.04" font-family="Times,serif" font-size="14.00">B</text>
</g>
<!-- 0&#45;&#45;1 -->
<g id="edge1" class="edge">
<title>0&#45;&#45;1</title>
<path fill="none" stroke="black" d="M239.08,-194.27C268.48,-173.24 315.08,-128.53 337.19,-100.13"/>
</g>
<!-- 0&#45;&#45;1 -->
<g id="edge2" class="edge">
<title>0&#45;&#45;1</title>
<path fill="none" stroke="black" d="M225.74,-180.37C247.99,-151.87 294.61,-107.18 323.91,-86.29"/>
</g>
<!-- 2 -->
<g id="node3" class="node">
<title>2</title>
<ellipse fill="none" stroke="black" cx="157.28" cy="-27" rx="27" ry="27"/>
<text text-anchor="middle" x="157.28" y="-22.32" font-family="Times,serif" font-size="14.00">C</text>
</g>
<!-- 0&#45;&#45;2 -->
<g id="edge3" class="edge">
<title>0&#45;&#45;2</title>
<path fill="none" stroke="black" d="M205.71,-179.14C194.96,-145.39 176.28,-86.69 165.53,-52.92"/>
</g>
<!-- 3 -->
<g id="node4" class="node">
<title>3</title>
<ellipse fill="none" stroke="black" cx="27" cy="-168.25" rx="27" ry="27"/>
<text text-anchor="middle" x="27" y="-163.58" font-family="Times,serif" font-size="14.00">D</text>
</g>
<!-- 0&#45;&#45;3 -->
<g id="edge4" class="edge">
<title>0&#45;&#45;3</title>
<path fill="none" stroke="black" d="M190.58,-190.67C155.81,-178.5 90.69,-165.69 53.96,-163.81"/>
</g>
<!-- 0&#45;&#45;3 -->
<g id="edge5" class="edge">
<title>0&#45;&#45;3</title>
<path fill="none" stroke="black" d="M186.88,-209.47C150.09,-207.57 84.98,-194.75 50.26,-182.58"/>
</g>
<!-- 4 -->
<g id="node5" class="node">
<title>4</title>
<ellipse fill="none" stroke="black" cx="395.73" cy="-262.06" rx="27" ry="27"/>
<text text-anchor="middle" x="395.73" y="-257.39" font-family="Times,serif" font-size="14.00">E</text>
</g>
<!-- 0&#45;&#45;4 -->
<g id="edge6" class="edge">
<title>0&#45;&#45;4</title>
<path fill="none" stroke="black" d="M239.99,-213.2C274.55,-224.04 335.2,-243.07 369.73,-253.91"/>
</g>
<!-- 1&#45;&#45;2 -->
<g id="edge7" class="edge">
<title>1&#45;&#45;2</title>
<path fill="none" stroke="black" d="M322.17,-68.94C285.58,-59.63 220.16,-42.99 183.69,-33.72"/>
</g>
<!-- 1&#45;&#45;4 -->
<g id="edge8" class="edge">
<title>1&#45;&#45;4</title>
<path fill="none" stroke="black" d="M355.42,-102.02C364.34,-137.43 380.12,-200.09 389.06,-235.59"/>
</g>
<!-- 2&#45;&#45;3 -->
<g id="edge9" class="edge">
<title>2&#45;&#45;3</title>
<path fill="none" stroke="black" d="M138.89,-46.94C114.06,-73.86 70.08,-121.55 45.3,-148.42"/>
</g>
</g>
</svg>
