<?xml version="1.0" encoding="UTF-8" standalone="no"?>
<!DOCTYPE svg PUBLIC "-//W3C//DTD SVG 1.1//EN"
 "http://www.w3.org/Graphics/SVG/1.1/DTD/svg11.dtd">
<!-- Generated by graphviz version 12.2.1 (0)
 -->
<!-- Pages: 1 -->
<svg width="322pt" height="323pt"
 viewBox="0.00 0.00 322.47 322.70" xmlns="http://www.w3.org/2000/svg" xmlns:xlink="http://www.w3.org/1999/xlink">
<g id="graph0" class="graph" transform="scale(1 1) rotate(0) translate(4 318.7)">
<polygon fill="white" stroke="none" points="-4,4 -4,-318.7 318.47,-318.7 318.47,4 -4,4"/>
<!-- 0 -->
<g id="node1" class="node">
<title>0</title>
<ellipse fill="none" stroke="black" cx="27" cy="-138.03" rx="27" ry="27"/>
<text text-anchor="middle" x="27" y="-133.35" font-family="Times,serif" font-size="14.00">A</text>
</g>
<!-- 1 -->
<g id="node2" class="node">
<title>1</title>
<ellipse fill="none" stroke="black" cx="287.47" cy="-176.58" rx="27" ry="27"/>
<text text-anchor="middle" x="287.47" y="-171.91" font-family="Times,serif" font-size="14.00">B</text>
</g>
<!-- 0&#45;&#45;1 -->
<g id="edge1" class="edge">
<title>0&#45;&#45;1</title>
<path fill="none" stroke="black" d="M51.22,-150.13C100.02,-164.19 209.81,-180.45 260.68,-181.15"/>
</g>
<!-- 0&#45;&#45;1 -->
<g id="edge2" class="edge">
<title>0&#45;&#45;1</title>
<path fill="none" stroke="black" d="M53.68,-133.46C104.47,-134.14 214.26,-150.39 263.15,-164.46"/>
</g>
<!-- 2 -->
<g id="node3" class="node">
<title>2</title>
<ellipse fill="none" stroke="black" cx="176.4" cy="-27" rx="27" ry="27"/>
<text text-anchor="middle" x="176.4" y="-22.32" font-family="Times,serif" font-size="14.00">C</text>
</g>
<!-- 0&#45;&#45;2 -->
<g id="edge3" class="edge">
<title>0&#45;&#45;2</title>
<path fill="none" stroke="black" d="M49.04,-121.64C77.45,-100.53 126.53,-64.06 154.75,-43.09"/>
</g>
<!-- 3 -->
<g id="node4" class="node">
<title>3</title>
<ellipse fill="none" stroke="black" cx="137.8" cy="-287.7" rx="27" ry="27"/>
<text text-anchor="middle" x="137.8" y="-283.02" font-family="Times,serif" font-size="14.00">D</text>
</g>
<!-- 0&#45;&#45;3 -->
<g id="edge4" class="edge">
<title>0&#45;&#45;3</title>
<path fill="none" stroke="black" d="M34.43,-164.26C51.49,-195.99 89.8,-247.72 115.1,-273.15"/>
</g>
<!-- 0&#45;&#45;3 -->
<g id="edge5" class="edge">
<title>0&#45;&#45;3</title>
<path fill="none" stroke="black" d="M49.92,-152.79C75.22,-178.31 113.36,-229.83 130.37,-261.48"/>
</g>
<!-- 1&#45;&#45;2 -->
<g id="edge6" class="edge">
<title>1&#45;&#45;2</title>
<path fill="none" stroke="black" d="M271.08,-154.51C249.96,-126.07 213.47,-76.93 192.49,-48.68"/>
</g>
<!-- 1&#45;&#45;3 -->
<g id="edge7" class="edge">
<title>1&#45;&#45;3</title>
<path fill="none" stroke="black" d="M265.7,-192.74C237.33,-213.81 187.97,-250.45 159.59,-271.52"/>
</g>
<!-- 2&#45;&#45;3 -->
<g id="edge8" class="edge">
<title>2&#45;&#45;3</title>
<path fill="none" stroke="black" d="M172.41,-53.92C165.02,-103.87 149.24,-210.4 141.82,-260.54"/>
</g>
</g>
</svg>
