<?xml version="1.0" encoding="UTF-8" standalone="no"?>
<!DOCTYPE svg PUBLIC "-//W3C//DTD SVG 1.1//EN"
 "http://www.w3.org/Graphics/SVG/1.1/DTD/svg11.dtd">
<!-- Generated by graphviz version 12.2.1 (0)
 -->
<!-- Pages: 1 -->
<svg width="328pt" height="316pt"
 viewBox="0.00 0.00 327.63 316.07" xmlns="http://www.w3.org/2000/svg" xmlns:xlink="http://www.w3.org/1999/xlink">
<g id="graph0" class="graph" transform="scale(1 1) rotate(0) translate(4 312.07)">
<polygon fill="white" stroke="none" points="-4,4 -4,-312.07 323.63,-312.07 323.63,4 -4,4"/>
<!-- 0 -->
<g id="node1" class="node">
<title>0</title>
<ellipse fill="none" stroke="black" cx="27" cy="-114.38" rx="27" ry="27"/>
<text text-anchor="middle" x="27" y="-109.71" font-family="Times,serif" font-size="14.00">5</text>
</g>
<!-- 1 -->
<g id="node2" class="node">
<title>1</title>
<ellipse fill="none" stroke="black" cx="292.63" cy="-113.21" rx="27" ry="27"/>
<text text-anchor="middle" x="292.63" y="-108.54" font-family="Times,serif" font-size="14.00">3</text>
</g>
<!-- 0&#45;&#45;1 -->
<g id="edge1" class="edge">
<title>0&#45;&#45;1</title>
<path fill="none" stroke="black" d="M52.99,-122.69C103.8,-129.23 215.77,-128.74 266.61,-121.77"/>
</g>
<!-- 0&#45;&#45;1 -->
<g id="edge2" class="edge">
<title>0&#45;&#45;1</title>
<path fill="none" stroke="black" d="M52.92,-105.84C103.67,-98.86 215.64,-98.36 266.53,-104.89"/>
</g>
<!-- 2 -->
<g id="node3" class="node">
<title>2</title>
<ellipse fill="none" stroke="black" cx="144.09" cy="-27" rx="27" ry="27"/>
<text text-anchor="middle" x="144.09" y="-22.32" font-family="Times,serif" font-size="14.00">3</text>
</g>
<!-- 0&#45;&#45;2 -->
<g id="edge3" class="edge">
<title>0&#45;&#45;2</title>
<path fill="none" stroke="black" d="M49.02,-97.95C69.96,-82.32 101.26,-58.96 122.16,-43.36"/>
</g>
<!-- 3 -->
<g id="node4" class="node">
<title>3</title>
<ellipse fill="none" stroke="black" cx="61.85" cy="-281.07" rx="27" ry="27"/>
<text text-anchor="middle" x="61.85" y="-276.39" font-family="Times,serif" font-size="14.00">3</text>
</g>
<!-- 0&#45;&#45;3 -->
<g id="edge4" class="edge">
<title>0&#45;&#45;3</title>
<path fill="none" stroke="black" d="M22.46,-141.38C24.43,-173.85 35.71,-227.75 46.92,-258.25"/>
</g>
<!-- 0&#45;&#45;3 -->
<g id="edge5" class="edge">
<title>0&#45;&#45;3</title>
<path fill="none" stroke="black" d="M41.97,-137.3C53.18,-167.84 64.44,-221.74 66.39,-254.18"/>
</g>
<!-- 1&#45;&#45;2 -->
<g id="edge6" class="edge">
<title>1&#45;&#45;2</title>
<path fill="none" stroke="black" d="M269.09,-99.55C241.28,-83.41 195.28,-56.71 167.51,-40.6"/>
</g>
<!-- 2&#45;&#45;3 -->
<g id="edge7" class="edge">
<title>2&#45;&#45;3</title>
<path fill="none" stroke="black" d="M135.75,-52.76C119.99,-101.45 85.99,-206.49 70.21,-255.24"/>
</g>
</g>
</svg>
